# xmcd
#
# Track frame offsets:
#	150
#	13847
#	26407
#	41702
#	57822
#	73916
#	90698
#	105829
#	119790
#	134979
#
# Disc length: 1989 seconds
#
# Revision: 0
# Processed by: cddbd v1.5.2PL0 Copyright (c) Steve Scherf et al.
# Submitted via: EasyCDDAExtractor 16.0.6.1
#
DISCID=9007c30a
DTITLE=Συλλογικός δίσκος - Λαϊκό τραγούδι 1954-1967, 1956-4
DYEAR=2008
DGENRE=Λαϊκή
TTITLE0=Γαβαλάς Πάνος - Κούνια, που σε κούναγε [Απόστολος Καλδάρας]
TTITLE1=Λίντα Μαίρη - Γαλάζια μάτια [Μανώλης Χιώτης]
TTITLE2=Καζαντζίδης Στέλιος - Μακάρι να πεθάνω [Μπάμπης Μπακάλης]
TTITLE3=Γαβαλάς Πάνος - Κακούργα μητριά [Σπύρος Περιστέρης]
TTITLE4=Γκρέϋ Καίτη - Ορφανή δυστυχισμένη [Στέλιος Χρυσίνης-Κώστας Ζήτης]
TTITLE5=Γαβαλάς Πάνος - Κατάδικος για πάντα [Βασίλης Τσιτσάνης]
TTITLE6=Γαβαλάς Πάνος - Ο βιοπαλαιστής [Απόστολος Καλδάρας]
TTITLE7=Γκρέϋ Καίτη - Γειά σου άντρα μου [Γιώργος Μητσάκης]
TTITLE8=Καζαντζίδης Στέλιος - Γιατί με κατακρίνουνε [Βασίλης Καραπατάκης]
TTITLE9=Καζαντζίδης Στέλιος - Απόψε μάννα σε συλλογιέμαι [Θεόδ. Δερβενιώτης-Γι
TTITLE9=άννης Λεκάκης]
EXTD=
EXTT0=
EXTT1=
EXTT2=
EXTT3=
EXTT4=
EXTT5=
EXTT6=
EXTT7=
EXTT8=
EXTT9=
PLAYORDER=
